HIERARCHY
ROOT SpineBase
{
  OFFSET 0.000000 0.000000 0.000000
  CHANNELS 6 Xposition Yposition Zposition Zrotation Xrotation Yrotation
  JOINT SpineMid
  {
    OFFSET 0.000000 26.259936 0.000000
    CHANNELS 3 Zrotation Xrotation Yrotation
    JOINT SpineShoulder
    {
      OFFSET 0.151427 19.803992 -0.820384
      CHANNELS 3 Zrotation Xrotation Yrotation
      JOINT Neck
      {
        OFFSET 0.091275 6.654066 -0.603242
        CHANNELS 3 Zrotation Xrotation Yrotation
        JOINT Head
        {
          OFFSET 4.788010 13.536023 -1.636564
          CHANNELS 3 Zrotation Xrotation Yrotation
          End Site
          {
            OFFSET 0 0 0
          }
        }
      }
      JOINT ShoulderLeft
      {
        OFFSET -9.707295 0.225683 -10.255911
        CHANNELS 3 Zrotation Xrotation Yrotation
        JOINT ElbowLeft
        {
          OFFSET -3.573490 -16.026063 -7.514697
          CHANNELS 3 Zrotation Xrotation Yrotation
          JOINT WristLeft
          {
            OFFSET 18.377974 -3.047665 -6.470890
            CHANNELS 3 Zrotation Xrotation Yrotation
            JOINT HandLeft
            {
              OFFSET 5.588531 2.385035 3.775218
              CHANNELS 3 Zrotation Xrotation Yrotation
              JOINT HandTipLeft
              {
                OFFSET 0.120753 0.382411 -0.389883
                CHANNELS 3 Zrotation Xrotation Yrotation
                End Site
                {
                  OFFSET 0 0 0
                }
              }
              JOINT ThumbLeft
              {
                OFFSET -3.371080 -1.316223 0.377715
                CHANNELS 3 Zrotation Xrotation Yrotation
                End Site
                {
                  OFFSET 0 0 0
                }
              }
            }
          }
        }
      }
      JOINT ShoulderRight
      {
        OFFSET 13.532257 -3.087927 9.138885
        CHANNELS 3 Zrotation Xrotation Yrotation
        JOINT ElbowRight
        {
          OFFSET 7.486817 -22.956992 -1.318932
          CHANNELS 3 Zrotation Xrotation Yrotation
          JOINT WristRight
          {
            OFFSET 5.012617 -13.846533 -12.989551
            CHANNELS 3 Zrotation Xrotation Yrotation
            JOINT HandRight
            {
              OFFSET 3.030209 -0.387895 -5.092551
              CHANNELS 3 Zrotation Xrotation Yrotation
              JOINT HandTipRight
              {
                OFFSET 4.718273 -2.913199 -5.856439
                CHANNELS 3 Zrotation Xrotation Yrotation
                End Site
                {
                  OFFSET 0 0 0
                }
              }
              JOINT ThumbRight
              {
                OFFSET 1.689438 5.072753 -1.313772
                CHANNELS 3 Zrotation Xrotation Yrotation
                End Site
                {
                  OFFSET 0 0 0
                }
              }
            }
          }
        }
      }
    }
  }
  JOINT HipLeft
  {
    OFFSET -5.364427 1.867423 -7.241063
    CHANNELS 3 Zrotation Xrotation Yrotation
    JOINT KneeLeft
    {
      OFFSET 14.321270 1.648753 -27.856056
      CHANNELS 3 Zrotation Xrotation Yrotation
      JOINT AnkleLeft
      {
        OFFSET 4.657419 -30.775622 3.824758
        CHANNELS 3 Zrotation Xrotation Yrotation
        JOINT FootLeft
        {
          OFFSET 5.628399 -5.749375 -3.796713
          CHANNELS 3 Zrotation Xrotation Yrotation
          End Site
          {
            OFFSET 0 0 0
          }
        }
      }
    }
  }
  JOINT HipRight
  {
    OFFSET 6.258467 0.782749 1.321835
    CHANNELS 3 Zrotation Xrotation Yrotation
    JOINT KneeRight
    {
      OFFSET 26.891716 2.823648 -13.058414
      CHANNELS 3 Zrotation Xrotation Yrotation
      JOINT AnkleRight
      {
        OFFSET -7.119253 -31.602975 -10.114404
        CHANNELS 3 Zrotation Xrotation Yrotation
        JOINT FootRight
        {
          OFFSET 3.091860 -6.475357 -6.629892
          CHANNELS 3 Zrotation Xrotation Yrotation
          End Site
          {
            OFFSET 0 0 0
          }
        }
      }
    }
  }
}
MOTION
Frames: 13
Frame Time: 0.033333
-51.217893 34.888852 347.979383 -0.000000 0.000000 -36.380072 -0.000000 0.000000 36.380072 -0.000000 0.000000 0.000000 -0.000000 0.000000 0.000000 0.000000 0.000000 0.000000 -0.000000 0.000000 0.000000 -0.000000 0.000000 0.000000 -0.000000 0.000000 0.000000 -0.000000 0.000000 0.000000 0.000000 0.000000 0.000000 0.000000 0.000000 0.000000 -0.000000 0.000000 0.000000 -0.000000 0.000000 0.000000 -0.000000 0.000000 0.000000 -0.000000 0.000000 0.000000 0.000000 0.000000 0.000000 0.000000 0.000000 0.000000 -0.000000 0.000000 36.380072 -0.000000 0.000000 0.000000 -0.000000 0.000000 0.000000 0.000000 0.000000 0.000000 -0.000000 0.000000 36.380072 -0.000000 0.000000 0.000000 -0.000000 0.000000 0.000000 0.000000 0.000000 0.000000
-51.171796 34.949700 348.083002 0.078159 -0.179283 -36.595436 -0.169633 0.097345 36.595703 -0.000000 0.000000 0.000000 -0.000000 0.000000 0.000000 0.000000 0.000000 0.000000 4.391049 -2.498804 -1.433752 -6.688046 1.572639 2.048516 -4.243228 13.776512 -15.008587 -15.882688 -32.296513 -12.685013 0.000000 0.000000 0.000000 0.000000 0.000000 0.000000 -0.000000 0.000000 0.000000 -0.976676 -1.386761 0.408274 0.424685 0.696513 1.778174 -1.351939 -0.440580 -0.213864 0.000000 0.000000 0.000000 0.000000 0.000000 0.000000 -0.169633 0.097345 36.595703 -0.000000 0.000000 0.000000 3.660454 7.904832 4.714294 0.000000 0.000000 0.000000 -0.169633 0.097345 36.595703 -0.000000 0.000000 0.000000 3.300986 -0.666547 -3.650035 0.000000 0.000000 0.000000
-51.137772 34.998695 348.146542 0.138469 -0.299217 -36.751292 -0.289982 0.156891 36.752051 -0.000000 0.000000 0.000000 -0.000000 0.000000 0.000000 0.000000 0.000000 0.000000 7.604814 -4.447468 -2.360899 -11.511180 2.668965 3.972885 -6.127144 29.396121 -30.148123 -14.936876 -54.671985 -18.556723 0.000000 0.000000 0.000000 0.000000 0.000000 0.000000 -0.022970 -0.814923 -0.264739 -1.512521 -1.373036 0.929164 0.491600 0.770343 3.148032 -2.203182 -0.456942 -0.287885 0.000000 0.000000 0.000000 0.000000 0.000000 0.000000 -0.289982 0.156891 36.752051 -0.000000 0.000000 0.000000 6.087654 14.210023 8.096186 0.000000 0.000000 0.000000 -0.289982 0.156891 36.752051 -0.000000 0.000000 0.000000 5.785435 -1.251038 -6.373500 0.000000 0.000000 0.000000
-51.115823 35.035837 348.170003 0.180888 -0.359685 -36.848514 -0.360456 0.179347 36.849646 -0.000000 0.000000 0.000000 -0.000000 0.000000 0.000000 0.000000 0.000000 0.000000 9.956384 -5.951500 -2.962361 -14.752519 3.579101 5.717176 -5.049647 41.714683 -42.733259 -2.794350 -68.399334 -13.737453 0.000000 0.000000 0.000000 0.000000 0.000000 0.000000 -0.001108 -1.098605 -0.358436 -1.693021 -1.287804 1.111454 0.187362 0.227758 4.109533 -2.548583 -0.095896 -0.195825 0.000000 0.000000 0.000000 0.000000 0.000000 0.000000 -0.360456 0.179347 36.849646 -0.460121 -0.703448 -0.166440 8.125775 19.739245 10.593783 0.000000 0.000000 0.000000 -0.360456 0.179347 36.849646 -0.000000 0.000000 0.000000 7.430457 -1.621331 -8.139011 0.000000 0.000000 0.000000
-51.105948 35.061125 348.153384 0.205384 -0.360612 -36.887528 -0.380727 0.165139 36.888724 -0.000000 0.000000 0.000000 0.738746 0.514029 -0.096092 0.000000 0.000000 0.000000 11.653408 -7.099388 -3.345331 -16.615409 4.500831 7.276886 -2.991453 49.505076 -51.929895 14.802166 -74.974028 -1.793550 0.000000 0.000000 0.000000 0.000000 0.000000 0.000000 0.043280 -1.302899 -0.427143 -1.497154 -0.676427 1.106486 -0.497137 -0.930534 4.651334 -2.383494 0.627106 0.067625 0.000000 0.000000 0.000000 0.000000 0.000000 0.000000 -0.380727 0.165139 36.888724 -0.421038 -0.847928 -0.183698 9.145329 23.452495 12.322174 0.000000 0.000000 0.000000 -0.380727 0.165139 36.888724 -0.000000 0.000000 0.000000 8.243932 -1.694329 -8.951129 0.000000 0.000000 0.000000
-51.108147 35.074560 348.096687 0.211938 -0.301964 -36.868311 -0.350726 0.114416 36.869219 -0.000000 0.000000 0.000000 0.861822 0.535793 -0.089643 0.000000 0.000000 0.000000 12.829907 -7.957090 -3.573080 -17.236059 5.566678 8.656993 -1.838408 53.991523 -57.743637 28.850556 -77.247162 8.129562 0.000000 0.000000 0.000000 0.000000 0.000000 0.000000 0.110520 -1.429221 -0.471285 -0.921795 0.464404 0.902711 -1.567960 -2.709337 4.746668 -1.697207 1.731947 0.486678 0.000000 0.000000 0.000000 0.000000 0.000000 0.000000 -0.350726 0.114416 36.869219 -0.286510 -0.946319 -0.181070 9.707334 26.118471 13.538128 0.000000 0.000000 0.000000 -0.350726 0.114416 36.869219 -0.000000 0.000000 0.000000 8.233531 -1.432471 -8.817482 0.000000 0.000000 0.000000
-51.058350 35.102489 348.022453 0.270975 -0.211937 -36.799214 -0.343933 0.007387 36.799737 -0.000000 0.000000 0.000000 1.066018 0.535845 -0.065891 0.000000 0.000000 0.000000 14.090940 -8.885276 -3.796918 -16.700482 7.454725 10.608145 -1.840604 55.035219 -61.453981 47.121870 -79.276885 24.526697 0.000000 0.000000 0.000000 0.000000 0.000000 0.000000 0.158959 -1.609669 -0.532070 -0.910873 0.111270 0.715434 -1.730722 -2.495176 3.285676 -0.049126 3.229910 1.043789 0.000000 0.000000 0.000000 0.000000 0.000000 0.000000 -0.380116 0.484631 37.704203 -0.171098 -1.250936 -1.019244 9.198281 28.908682 15.583423 0.000000 0.000000 0.000000 -0.343933 0.007387 36.799737 -0.000000 0.000000 0.000000 4.927805 -2.689158 -6.232637 0.000000 0.000000 0.000000
-51.098995 35.108320 347.845408 0.197163 0.024212 -36.616637 -0.143811 -0.137033 36.616423 -0.000000 0.000000 0.000000 1.194570 0.528840 -0.048349 0.000000 0.000000 0.000000 14.770345 -9.520465 -3.860872 -15.125783 9.433088 11.919958 2.140840 54.963865 -70.643757 3.857871 -75.655702 -21.337458 0.000000 0.000000 0.000000 0.000000 0.000000 0.000000 0.156105 -1.667427 -0.550734 1.286636 2.972792 -0.400350 -5.586876 -8.482651 2.977543 2.435833 6.387644 0.774304 0.000000 0.000000 0.000000 0.000000 0.000000 0.000000 -0.202125 0.527558 37.707847 -0.067979 -1.575216 -1.201198 10.219645 26.555938 12.847831 0.000000 0.000000 0.000000 -0.207444 -0.039127 35.534592 -0.005120 -0.116656 1.081728 3.306633 -1.141621 -3.883254 0.000000 0.000000 0.000000
-51.219756 35.066910 347.598816 0.013251 0.364925 -36.369549 0.205730 -0.301698 36.370049 -0.000000 0.000000 0.000000 1.235595 0.257353 0.055816 0.000000 0.000000 0.000000 14.992780 -9.609488 -3.923696 -12.469745 11.368062 13.139865 -8.501672 58.194608 -62.525201 3.634131 -76.909298 -28.269023 0.000000 0.000000 0.000000 0.000000 0.000000 0.000000 -0.145268 -1.996486 -0.646260 5.472849 8.110702 -2.501272 -10.190344 -15.540767 4.314942 5.542208 9.897509 -0.887313 0.000000 0.000000 0.000000 0.000000 0.000000 0.000000 0.107647 0.646982 37.593407 0.094642 -1.940992 -1.304107 10.333018 25.639967 11.784791 0.000000 0.000000 0.000000 0.174920 -0.034618 34.732051 -0.126846 -0.237046 1.637645 2.664876 2.379672 -1.596137 0.000000 0.000000 0.000000
-51.361997 34.964815 347.375698 -0.151599 0.657855 -36.098942 0.510100 -0.442219 36.101781 -0.000000 0.000000 0.000000 1.015217 0.005490 0.121137 0.000000 0.000000 0.000000 13.324122 -9.012904 -3.421936 -8.493667 12.108556 11.739106 -31.731524 54.159490 -34.487892 -11.194524 -59.463192 -49.088029 0.000000 0.000000 0.000000 0.000000 0.000000 0.000000 0.272602 -1.117971 -0.377528 9.073746 13.020356 -4.677306 -13.436351 -21.122653 2.692796 8.503424 13.214555 -0.495782 0.000000 0.000000 0.000000 0.000000 0.000000 0.000000 0.350601 0.939404 37.485215 0.246060 -2.311650 -1.403796 9.500724 24.227078 11.174895 0.000000 0.000000 0.000000 0.403750 -0.233014 34.041814 -0.028991 -0.232886 2.059281 4.249090 7.339813 -1.029828 0.000000 0.000000 0.000000
-51.520036 34.825027 347.205833 -0.288403 0.886755 -35.819016 0.752839 -0.550233 35.824863 -0.000000 0.000000 0.000000 -0.000000 0.000000 0.000000 0.000000 0.000000 0.000000 11.853238 -8.960760 -2.811534 -6.575525 12.208965 10.103205 -47.055780 47.035480 -12.918699 -8.731956 -51.228212 -52.353036 0.000000 0.000000 0.000000 0.000000 0.000000 0.000000 1.417308 0.260439 0.000281 10.563268 19.289583 -5.135156 -14.468291 -25.809709 -0.849152 5.277073 12.508499 6.294733 0.000000 0.000000 0.000000 0.000000 0.000000 0.000000 0.548210 1.163328 37.273770 0.332296 -2.627829 -1.430245 7.440395 24.682958 12.927316 0.000000 0.000000 0.000000 0.462544 -0.610841 33.461304 1.041218 0.296529 2.024996 7.977980 14.712952 -2.194896 0.000000 0.000000 0.000000
-51.652575 34.654339 347.134870 -0.334005 0.983477 -35.627790 0.345620 0.141605 35.627455 0.048749 -0.045097 0.001452 -0.296961 -1.719777 0.279121 0.000000 0.000000 0.000000 9.602039 -9.412868 -1.857248 -5.053923 11.219662 7.433873 -57.170321 35.148825 6.696293 -0.084886 -39.055855 -52.396540 0.000000 0.000000 0.000000 0.000000 0.000000 0.000000 2.815267 1.042654 0.446766 9.983763 25.680076 -4.071252 -16.056419 -32.227217 3.402237 2.293977 10.072005 4.717902 0.000000 0.000000 0.000000 0.000000 0.000000 0.000000 0.636684 1.152046 37.032989 0.382099 -2.816922 -1.388675 3.241102 18.044095 11.250816 0.000000 0.000000 0.000000 0.298467 -1.110211 33.251912 1.732305 0.608888 1.941772 11.352922 18.555533 -4.266919 0.000000 0.000000 0.000000
-51.739461 34.479099 347.160811 -0.277891 0.982287 -35.501499 0.313793 0.284529 35.504856 0.122472 0.014002 0.012761 -0.955760 -2.662002 0.452211 0.000000 0.000000 0.000000 6.484157 -8.534682 -0.982212 -3.716372 9.032910 3.951061 -55.884402 16.355555 23.088504 1.598313 -18.733452 -64.273356 0.000000 0.000000 0.000000 0.000000 0.000000 0.000000 4.525404 2.034847 0.665876 9.358214 31.645925 -3.653076 -16.525758 -34.020792 17.961220 -4.403052 5.534116 -1.807362 0.000000 0.000000 0.000000 0.000000 0.000000 0.000000 0.589506 1.139595 36.903375 0.365618 -2.820212 -1.384877 -3.555367 17.006078 16.134590 0.000000 0.000000 0.000000 -0.053739 -1.722272 33.349628 2.434582 1.083035 1.616589 13.867082 19.369332 -6.404170 0.000000 0.000000 0.000000
